# xmcd
#
# Track frame offsets: 
#        150
#        19974
#        41426
#        58687
#        78902
#        102584
#        120334
#        139489
#        152197
#        166405
#        182432
#        201531
#        226777
#
# Disc length: 4172 seconds
#
# Revision: 9
# Processed by: cddbd v1.5.2PL0 Copyright (c) Steve Scherf et al.
# Submitted via: ExactAudioCopyFreeDBPlugin 1.0
#
DISCID=ac104a0d
DTITLE=Prince - Musicology
DYEAR=2004
DGENRE=Rhythm and Blues
TTITLE0=Musicology
TTITLE1=Illusion, Coma, Pimp and Circumstance
TTITLE2=A Million Days
TTITLE3=Life 'O' the Party
TTITLE4=Call My Name
TTITLE5=Cinnamon Girl
TTITLE6=What Do U Want Me 2 Do?
TTITLE7=The Marrying Kind
TTITLE8=If Eye Was The Man In Ur Life
TTITLE9=On The Couch
TTITLE10=Dear Mr. Man
TTITLE11=Reflection
TTITLE12=ClipMusicology
EXTD=YEAR: 2004
EXTT0=
EXTT1=
EXTT2=
EXTT3=
EXTT4=
EXTT5=
EXTT6=
EXTT7=
EXTT8=
EXTT9=
EXTT10=
EXTT11=
EXTT12=
PLAYORDER=
